HIERARCHY
ROOT Hips
{
	OFFSET -0.001795 -0.223333 0.028219
	CHANNELS 6 Xposition Yposition Zposition Zrotation Yrotation Xrotation 
	JOINT LeftUpLeg
	{
		OFFSET 0.069520 -0.091406 -0.006815
		CHANNELS 3 Zrotation Yrotation Xrotation
		JOINT LeftLeg
		{
			OFFSET 0.034277 -0.375199 -0.004496
			CHANNELS 3 Zrotation Yrotation Xrotation
			JOINT LeftFoot
			{
				OFFSET -0.013596 -0.397961 -0.043693
				CHANNELS 3 Zrotation Yrotation Xrotation
				JOINT LeftToe
				{
					OFFSET 0.026358 -0.055791 0.119288
					CHANNELS 3 Zrotation Yrotation Xrotation
					End Site
					{
						OFFSET 0.000000 0.000000 0.000000
					}
				}
			}
		}
	}
	JOINT RightUpLeg
	{
		OFFSET -0.067670 -0.090522 -0.004320
		CHANNELS 3 Zrotation Yrotation Xrotation
		JOINT RightLeg
		{
			OFFSET -0.038290 -0.382569 -0.008850
			CHANNELS 3 Zrotation Yrotation Xrotation
			JOINT RightFoot
			{
				OFFSET 0.015774 -0.398415 -0.042312
				CHANNELS 3 Zrotation Yrotation Xrotation
				JOINT RightToe
				{
					OFFSET -0.025372 -0.048144 0.123348
					CHANNELS 3 Zrotation Yrotation Xrotation
					End Site
					{
						OFFSET 0.000000 0.000000 0.000000
					}
				}
			}
		}
	}
	JOINT Spine
	{
		OFFSET -0.002533 0.108963 -0.026696
		CHANNELS 3 Zrotation Yrotation Xrotation
		JOINT Spine1
		{
			OFFSET 0.005487 0.135180 0.001092
			CHANNELS 3 Zrotation Yrotation Xrotation
			JOINT Spine2
			{
				OFFSET 0.001457 0.052922 0.025425
				CHANNELS 3 Zrotation Yrotation Xrotation
				JOINT Neck
				{
					OFFSET -0.002778 0.213870 -0.042857
					CHANNELS 3 Zrotation Yrotation Xrotation
					JOINT Head
					{
						OFFSET 0.005152 0.064970 0.051349
						CHANNELS 3 Zrotation Yrotation Xrotation
						End Site
						{
							OFFSET 0.000000 0.000000 0.000000
						}
					}
				}
				JOINT LeftShoulder
				{
					OFFSET 0.078845 0.121749 -0.034090
					CHANNELS 3 Zrotation Yrotation Xrotation
					JOINT LeftArm
					{
						OFFSET 0.090977 0.030469 -0.008868
						CHANNELS 3 Zrotation Yrotation Xrotation
						JOINT LeftForeArm
						{
							OFFSET 0.259612 -0.012772 -0.027456
							CHANNELS 3 Zrotation Yrotation Xrotation
							JOINT LeftHand
							{
								OFFSET 0.249234 0.008986 -0.001171
								CHANNELS 3 Zrotation Yrotation Xrotation
								End Site
								{
									OFFSET 0.000000 0.000000 0.000000
								}
							}
						}
					}
				}
				JOINT RightShoulder
				{
					OFFSET -0.081759 0.118833 -0.038615
					CHANNELS 3 Zrotation Yrotation Xrotation
					JOINT RightArm
					{
						OFFSET -0.096012 0.032551 -0.009143
						CHANNELS 3 Zrotation Yrotation Xrotation
						JOINT RightForeArm
						{
							OFFSET -0.253742 -0.013329 -0.021401
							CHANNELS 3 Zrotation Yrotation Xrotation
							JOINT RightHand
							{
								OFFSET -0.255298 0.007772 -0.005559
								CHANNELS 3 Zrotation Yrotation Xrotation
								End Site
								{
									OFFSET 0.000000 0.000000 0.000000
								}
							}
						}
					}
				}
			}
		}
	}
}
MOTION
Frames: 7
Frame Time: 0.050000
0.000000 0.954912 0.000000 -0.919333 -1.046588 0.318680 0.498369 0.193499 2.266809 1.543552 -0.096677 -1.585509 -2.976516 0.003828 13.075731 0.000000 0.000000 0.000000 1.751949 -0.213296 1.466103 -1.532287 0.109745 -0.939187 1.457064 -1.116028 9.104427 0.000000 0.000000 0.000000 0.038455 -0.125146 3.031928 -1.387588 0.667398 -0.165473 0.253355 -0.155475 2.845220 2.126049 -0.447969 -13.248266 0.000000 0.000000 0.000000 -26.588611 -1.257299 -1.707025 -45.319233 -4.478670 -3.676893 -10.327238 -20.432921 2.623308 0.000000 0.000000 0.000000 25.145581 0.652351 -2.376296 50.625879 3.836493 -3.096651 8.485435 20.455613 1.990056 0.000000 0.000000 0.000000 
-0.000036 0.954174 0.001118 -0.826628 -1.090711 0.638110 0.500191 0.199009 2.332809 1.354009 -0.050926 -2.178708 -2.956942 -0.003646 13.000281 0.000000 0.000000 0.000000 1.115539 -0.156885 1.164289 -0.734355 0.049786 -0.572848 1.600087 -0.454142 8.295750 0.000000 0.000000 0.000000 -0.097814 -0.092796 2.345380 -1.825833 0.869681 1.393588 0.478179 -0.784884 1.581644 1.383207 0.067818 -14.440534 0.000000 0.000000 0.000000 -26.164850 -0.387978 -2.016804 -46.143611 -4.654167 -3.631166 -10.428293 -20.854802 2.717589 0.000000 0.000000 0.000000 24.548962 0.704111 -2.554835 51.333600 3.028093 -3.293440 9.271646 22.234014 2.277641 0.000000 0.000000 0.000000 
-0.000028 0.953391 0.001951 -0.614563 -0.992084 0.578978 0.218250 0.190322 2.137579 1.449867 -0.084573 -1.643712 -2.922212 -0.059093 12.688453 0.000000 0.000000 0.000000 1.150152 -0.162046 1.202659 -1.055159 0.102102 -0.159122 1.247952 -0.780916 7.405949 0.000000 0.000000 0.000000 -0.002091 -0.106989 2.624203 -1.475051 0.715137 -0.955377 0.151844 -0.867805 3.564199 0.866038 0.310739 -13.680192 0.000000 0.000000 0.000000 -25.632522 -0.819426 -1.626107 -46.154546 -4.671914 -3.798567 -10.845298 -20.665074 2.782276 0.000000 0.000000 0.000000 25.492757 1.480899 -2.119597 50.379075 2.980990 -3.427723 7.706178 22.372900 2.038586 0.000000 0.000000 0.000000 
-0.000190 0.952838 0.002837 -0.568819 -0.650513 0.564384 0.176736 0.210949 2.359735 1.519432 -0.074798 -1.970236 -3.076596 -0.321146 12.558740 0.000000 0.000000 0.000000 1.028664 -0.180780 1.418898 -0.838246 0.083540 -0.091457 1.042722 -0.904574 6.786505 0.000000 0.000000 0.000000 -0.220213 -0.092952 2.450060 -1.466838 0.705468 -0.254507 0.527881 -1.560465 2.980202 0.805668 0.299090 -13.676372 0.000000 0.000000 0.000000 -25.780065 0.319641 -2.158764 -46.234128 -4.865570 -3.744925 -11.778852 -20.913782 3.013280 0.000000 0.000000 0.000000 25.512851 1.819184 -2.150605 49.823020 2.933247 -3.290248 8.455127 22.091597 2.108858 0.000000 0.000000 0.000000 
-0.000325 0.952530 0.003695 -0.487363 -0.559752 0.347224 -0.069022 0.252413 2.721093 1.832548 -0.097068 -2.105148 -3.104238 -0.389746 12.472062 0.000000 0.000000 0.000000 0.962101 -0.216158 1.775230 -1.070475 0.093253 -0.391204 1.268739 -0.539083 7.074334 0.000000 0.000000 0.000000 -0.022913 -0.102785 2.539744 -1.295751 0.620824 0.059080 0.197803 -1.363182 2.823756 0.652120 0.375104 -12.926566 0.000000 0.000000 0.000000 -25.881018 -0.364897 -1.859948 -46.120616 -4.952854 -3.662913 -11.616544 -20.839858 2.956147 0.000000 0.000000 0.000000 25.434790 1.892726 -1.991679 50.030066 3.162582 -3.231028 8.136358 21.803958 2.035343 0.000000 0.000000 0.000000 
-0.000534 0.952240 0.004619 -0.322715 -0.251288 0.283084 -0.169483 0.276927 2.952466 1.777927 -0.079076 -2.346644 -3.279298 -0.639104 12.472825 0.000000 0.000000 0.000000 0.764665 -0.239795 2.072655 -1.141023 0.083516 -0.745351 1.355401 -0.386411 7.215072 0.000000 0.000000 0.000000 -0.076077 -0.105378 2.649440 -1.264008 0.611423 -0.372816 0.319566 -1.741600 3.351393 0.312549 0.578135 -13.165511 0.000000 0.000000 0.000000 -26.251461 -0.093608 -1.952571 -45.973082 -5.065996 -3.686017 -11.847106 -21.337819 3.089600 0.000000 0.000000 0.000000 25.400712 2.179752 -1.882818 49.734477 3.272764 -3.190013 8.141138 21.098699 1.958278 0.000000 0.000000 0.000000 
-0.000838 0.952141 0.005454 -0.113387 -0.041697 0.289341 -0.389878 0.297948 3.089051 1.838022 -0.073598 -2.548803 -3.408844 -0.796511 12.546836 0.000000 0.000000 0.000000 0.615636 -0.247941 2.208953 -1.285160 0.079671 -1.112739 1.367297 -0.518945 7.604434 0.000000 0.000000 0.000000 0.135653 -0.111873 2.644825 -1.442438 0.692809 -0.060177 0.181718 -2.020125 3.320460 0.248584 0.630534 -13.572847 0.000000 0.000000 0.000000 -26.475318 -0.117549 -1.907418 -46.018504 -5.224403 -3.646131 -11.679820 -21.656531 3.112402 0.000000 0.000000 0.000000 25.430237 2.263181 -1.889474 50.080142 3.417466 -3.137235 7.380050 20.806032 1.798050 0.000000 0.000000 0.000000 
